<svg width="20" height="21" viewBox="0 0 20 21" fill="none" xmlns="http://www.w3.org/2000/svg">
<path d="M10.9489 0H9.05109V21H10.9489C15.9481 21 20 16.2988 20 10.5C20 4.70116 15.9481 0 10.9489 0Z" fill="#DB6402"/>
<g style="mix-blend-mode:multiply">
<path d="M9.05109 20.4304V21H10.9489C13.0723 21 15.0239 20.1493 16.568 18.7289L9.05171 18.8096V20.4304H9.05109Z" fill="#DBA97F"/>
</g>
<g style="mix-blend-mode:soft-light">
<path d="M13.0605 7.17764L19.5176 7.11714C19.0908 5.66193 18.3971 4.35157 17.5029 3.26245L13.0205 3.30462L13.0605 7.17764Z" fill="white"/>
</g>
<g style="mix-blend-mode:soft-light">
<path d="M13.0198 2.56696L16.8392 2.53151C16.6436 2.33654 16.4412 2.15136 16.2312 1.97656L13.0136 2.00651L13.0192 2.56696H13.0198Z" fill="white"/>
</g>
<path d="M9.05109 21C14.0499 21 18.1022 16.299 18.1022 10.5C18.1022 4.70101 14.0499 0 9.05109 0C4.05231 0 0 4.70101 0 10.5C0 16.299 4.05231 21 9.05109 21Z" fill="#FEE475"/>
<path d="M9.05109 20.6553C13.8859 20.6553 17.8053 16.1086 17.8053 10.5C17.8053 4.89141 13.8859 0.344727 9.05109 0.344727C4.21624 0.344727 0.296829 4.89141 0.296829 10.5C0.296829 16.1086 4.21624 20.6553 9.05109 20.6553Z" fill="#FED425"/>
<g style="mix-blend-mode:soft-light">
<path d="M4.71677 19.3211L17.3254 7.18438C16.8967 5.74567 16.1987 4.45364 15.2995 3.3902L1.87471 16.3123C2.61709 17.5432 3.58757 18.5736 4.71677 19.3211Z" fill="white"/>
</g>
<g style="mix-blend-mode:soft-light">
<path d="M17.5016 13.1519L9.74286 20.6205C13.4779 20.2813 16.5543 17.2248 17.5016 13.1519Z" fill="white"/>
</g>
<g style="mix-blend-mode:soft-light">
<path d="M0.686141 7.49973L8.04812 0.413147C7.16513 0.529882 6.32214 0.79941 5.53913 1.1979L1.81846 4.77939C1.33104 5.60692 0.946101 6.52185 0.685516 7.50034L0.686141 7.49973Z" fill="white"/>
</g>
<g style="mix-blend-mode:soft-light">
<path d="M1.38854 15.4102L14.6246 2.66899C14.4652 2.51619 14.2996 2.37195 14.1309 2.23199L1.10796 14.7678C1.19544 14.986 1.28855 15.2005 1.38854 15.4102Z" fill="white"/>
</g>
<g style="mix-blend-mode:soft-light">
<path d="M9.05109 0.383818C13.9947 0.383818 18.0097 4.98169 18.0984 10.6919C18.0997 10.6277 18.1028 10.5642 18.1028 10.5C18.1028 4.70116 14.0503 0 9.05109 0C4.05187 0 0 4.70116 0 10.5C0 10.5642 0.00312451 10.6277 0.00437432 10.6919C0.0931104 4.98169 4.10811 0.383818 9.05109 0.383818Z" fill="white"/>
</g>
<g style="mix-blend-mode:soft-light">
<path d="M9.25293 18.0077C12.6917 18.0077 15.4795 14.7736 15.4795 10.7842C15.4795 6.7948 12.6917 3.56073 9.25293 3.56073C5.81411 3.56073 3.0264 6.7948 3.0264 10.7842C3.0264 14.7736 5.81411 18.0077 9.25293 18.0077Z" fill="white"/>
</g>
<path d="M9.05108 17.7235C12.4899 17.7235 15.2776 14.4894 15.2776 10.5C15.2776 6.51055 12.4899 3.27649 9.05108 3.27649C5.61227 3.27649 2.82455 6.51055 2.82455 10.5C2.82455 14.4894 5.61227 17.7235 9.05108 17.7235Z" fill="#FEB724"/>
<path d="M3.24136 11.1118C3.24136 7.12262 6.02905 3.88828 9.46789 3.88828C11.3276 3.88828 12.9955 4.83499 14.1365 6.3342C13.0086 4.48478 11.152 3.27649 9.05108 3.27649C5.61224 3.27649 2.82455 6.51083 2.82455 10.5C2.82455 12.3323 3.41384 14.0038 4.38244 15.2769C3.66442 14.0998 3.24136 12.6629 3.24136 11.1112V11.1118Z" fill="#FB9D12"/>
</svg>
